PathFileType	4	(X/Y/Z)	C:\Users\WrightLab\Desktop\Jo\P4V12.trc
DataRate	CameraRate	NumFrames	NumMarkers	Units	OrigDataRate	OrigDataStartFrame	OrigNumFrames
100.00	100.00	       21	19	mm	100.00	302	       602
Frame#	Time	Headset_Front			Headset_Back			Headset_Left			Headset_Right			Left_Shoulder			Right_Shoulder			Sternum			C7			Left Elbow			Right Elbow			Left Wrist			Right Wrist			Left ASIS			Right ASIS			S2			Left Knee			Right Knee			Left Ankle			Right Ankle			
		X1	Y1	Z1	X2	Y2	Z2	X3	Y3	Z3	X4	Y4	Z4	X5	Y5	Z5	X6	Y6	Z6	X7	Y7	Z7	X8	Y8	Z8	X9	Y9	Z9	X10	Y10	Z10	X11	Y11	Z11	X12	Y12	Z12	X13	Y13	Z13	X14	Y14	Z14	X15	Y15	Z15	X16	Y16	Z16	X17	Y17	Z17	X18	Y18	Z18	X19	Y19	Z19	

302	3.010	-478.26880	1549.11414	-6.21387				-614.86847	1667.39417	103.93954				-614.44672	1529.76196	318.34030	-340.66287	1531.69763	202.17665	-530.62762	1458.48682	164.42349	-464.18240	1575.46655	287.72964	-732.08386	1181.98401	426.83649	-92.90012	1211.68347	-151.58028	-804.57074	903.79492	307.24680	-104.78394	1273.18335	139.26949	-628.51862	1034.08313	319.01083	-406.86734	1019.67523	69.20730	-392.87210	1055.77808	332.35004	-676.08954	547.91687	358.85785	-479.97418	541.06732	90.00741	-309.09146	268.72974	568.52509	-531.96606	59.37444	229.17964	
303	3.020	-481.09070	1548.88306	-13.53275				-617.70111	1666.42639	95.52753				-619.10156	1530.48047	310.83038	-344.45621	1532.22290	195.61159	-534.68530	1459.23193	157.36197	-471.61743	1577.54919	283.05746	-738.11493	1183.49548	419.97183	-97.20383	1212.00757	-158.15141	-810.87451	905.28003	300.73062	-108.70419	1273.17847	134.52861	-633.49664	1034.66016	310.16681	-409.78641	1020.52063	61.86451	-398.24515	1057.16516	326.31555	-689.64685	550.85889	342.61441	-481.77405	541.20032	85.56025	-324.74344	274.22073	559.53223	-532.11389	59.38869	229.17014	
304	3.030	-483.85419	1548.49707	-20.70030				-621.20068	1666.63940	86.55399				-623.68848	1530.97131	302.74365	-348.62555	1532.92737	189.29756	-538.19366	1459.67480	149.58095	-473.60785	1577.16846	273.34924	-743.48517	1184.81519	413.16635	-99.34843	1211.35547	-162.74129	-817.05347	907.04706	293.93207	-112.42958	1273.59363	129.88397	-639.20740	1036.29834	300.52087	-412.00076	1020.64459	53.89440	-403.87460	1057.33459	318.71936	-703.13300	553.79846	326.34171	-483.96094	540.61755	81.56819	-341.84094	279.79037	551.66541	-532.38654	59.50940	228.81070	
305	3.040	-486.48840	1548.13342	-27.39296				-624.70862	1667.48572	78.06119				-628.27191	1531.83081	295.17358	-351.50647	1535.19983	184.07788	-542.12463	1460.31409	142.17300	-480.01440	1579.39636	268.21454	-749.18225	1186.49512	407.05374	-101.66064	1210.27747	-167.04376	-823.49036	908.54395	287.74896	-116.21612	1273.24854	126.16393	-644.47198	1038.55273	291.66302	-414.95618	1021.71716	47.58927	-408.45126	1058.10706	313.57932	-716.03278	557.33099	310.06470	-485.03528	540.15967	77.95082	-359.13989	282.32022	542.40570	-532.41925	59.53793	228.82565	
306	3.050	-489.03119	1547.79956	-34.54571				-628.37903	1667.32581	69.48687				-632.58826	1532.24915	287.46359	-355.58710	1535.74634	177.90941	-545.87665	1461.31653	134.99670	-483.68494	1580.32825	260.91083	-754.49017	1187.50122	400.22589	-104.05934	1209.16895	-170.96127	-829.44922	909.62360	281.60480	-119.88242	1273.19189	120.87231	-649.27997	1039.80261	283.43176	-417.94449	1021.06635	42.23454	-415.58481	1058.89880	306.94623	-728.30505	560.41058	293.75320	-486.78510	540.11389	73.56288	-377.29288	284.09250	532.84747	-532.53302	59.69196	228.78537	
307	3.060	-491.53357	1547.47937	-40.91688				-630.92737	1666.69312	62.50621				-637.28979	1533.68933	279.94110	-359.59790	1536.31824	171.63144	-549.17371	1462.15442	127.81108	-486.81259	1579.87830	252.02547	-759.89410	1188.90076	393.43173	-106.49184	1209.11145	-175.28448	-836.09412	911.60297	274.82907	-123.75980	1273.65930	116.89015	-654.66968	1041.72632	272.59161	-420.48044	1021.90033	35.39490	-421.02802	1059.65747	300.92609	-740.11725	564.49683	276.95462	-487.60995	539.71765	71.34663	-395.35941	284.61496	521.86200	-533.54413	58.95724	229.28297	
308	3.070	-493.93475	1547.21777	-47.91990				-634.02435	1667.53931	54.16031				-641.23627	1533.79272	271.55676	-363.04007	1536.74719	165.36110	-552.72876	1462.90698	120.45064	-491.64169	1580.80713	245.36815	-765.27393	1190.72339	385.73453	-108.00173	1208.39575	-178.36884	-842.08777	913.04584	268.00845	-127.47058	1274.04077	112.50584	-659.57904	1043.99670	264.25165	-422.87485	1022.07867	28.93017	-426.30341	1059.64294	295.06293	-750.47992	567.93109	259.87842	-488.99689	539.38885	68.38159	-414.42413	284.11542	510.30807	-532.64099	59.37307	228.75528	
309	3.080	-496.34515	1547.05823	-54.82176				-637.94330	1667.62561	45.62616				-646.03107	1535.27454	264.21008	-366.93658	1537.22449	159.22993	-556.54675	1463.74341	113.45679	-496.67038	1582.30188	239.85255	-769.79010	1191.58948	379.56201	-110.51884	1208.93677	-183.49596	-848.56586	914.93890	261.08328	-131.22054	1274.65649	108.25441	-664.61536	1044.76453	254.67714	-424.47256	1022.04010	21.87454	-432.41199	1060.19482	288.30511	-760.62012	571.60321	242.83627	-488.91724	538.50916	66.46346	-433.05136	282.15588	499.61237	-532.76483	59.56561	228.73579	
310	3.090	-498.72510	1546.74255	-61.44746				-640.40710	1667.07947	37.10530				-650.11084	1535.51318	256.45859	-370.79428	1537.73889	152.94914	-559.43762	1464.27527	105.61669	-499.73444	1582.00342	231.44925	-775.41772	1193.34143	372.81934	-112.05260	1208.60535	-187.28705	-854.50629	916.20880	254.27168	-134.74779	1274.41113	104.56812	-670.49286	1046.80957	244.29688	-426.71985	1023.03406	14.45895	-437.39008	1060.43298	282.51474	-771.39557	576.65649	227.31046	-489.41022	538.01117	64.40784	-451.22122	277.97641	485.89975	-532.92755	59.44821	228.99927	
311	3.100	-501.04361	1546.60486	-68.24722				-642.49268	1667.24597	30.43703				-654.72064	1536.73291	249.09792	-374.49423	1537.74438	147.08148	-563.09497	1465.10425	99.60654	-503.33368	1582.39136	224.27768	-780.52313	1194.59839	365.46347	-113.53654	1208.69678	-191.19553	-860.69489	917.55914	247.79170	-138.51616	1274.76233	100.14123	-674.83875	1048.34009	235.28088	-428.41537	1021.43402	11.02488	-442.65540	1061.18811	275.56085	-779.33856	578.87030	209.05814	-490.04758	537.75146	62.77673	-471.59842	273.80942	474.77692	-532.77771	59.57894	228.73129	
312	3.110	-417.80316	1641.34326	8.80932				-646.05627	1667.57837	22.55394				-658.67908	1537.34839	241.11118	-378.11917	1538.14038	140.94977	-566.37714	1465.39099	92.62079	-508.92963	1584.02454	219.06326	-785.23041	1195.45532	357.98285	-115.77444	1208.82007	-195.98016	-866.31171	918.37494	241.04410	-141.66118	1274.71301	96.06590	-679.18842	1049.29114	227.00423	-429.92752	1022.07581	3.99404	-447.76093	1061.22925	270.34094	-787.32062	582.04138	192.75035	-489.71005	536.93286	61.87187	-491.43054	269.69159	463.11383	-532.99933	59.45274	228.97260	
313	3.120	-505.75211	1546.09473	-81.04475				-648.58234	1667.00989	14.82005				-663.40442	1538.12756	233.45683	-382.25101	1536.89734	137.85545	-569.91113	1465.94958	84.23470	-514.13824	1585.91711	209.35135	-790.13055	1196.69873	350.73196	-117.76775	1209.40186	-200.60281	-872.20422	919.75439	233.74654	-144.88205	1274.95825	91.16333	-683.24658	1049.86963	217.58095	-431.66901	1021.64685	-2.53938	-453.50189	1060.49841	263.52835	-794.52856	585.01031	176.62955	-488.80011	535.41907	59.85894	-511.88226	262.50223	448.80136	-532.18042	59.76324	228.66792	
314	3.130	-423.81259	1641.97449	-7.70238				-650.80530	1667.72400	7.53039				-667.41840	1538.18213	225.28271	-385.92441	1534.56702	140.22937	-573.51227	1466.21460	77.75768				-795.49817	1197.71814	342.89893	-119.29328	1210.05957	-204.43811	-878.38916	921.21069	225.93513	-148.30299	1274.99268	86.98705	-688.33264	1050.77295	207.69742	-432.74561	1021.17114	-7.75147	-458.99835	1060.64587	258.44983	-802.59424	588.52496	158.40363	-488.92401	535.41132	58.49841	-532.21393	256.56372	435.62570	-532.41071	59.69364	228.89688	
315	3.140	-426.20297	1640.77405	-10.35445				-653.57013	1667.93579	-0.46122				-671.96582	1538.80408	217.81009	-389.47601	1534.54309	133.10994	-576.46655	1466.73987	70.10883	-518.35461	1584.36218	200.48228	-800.59326	1198.54797	335.12595	-121.24783	1210.05005	-208.39444	-884.05469	921.73279	218.62608	-151.55122	1274.98914	83.01003	-692.40393	1051.07556	198.20679	-433.83093	1020.24243	-13.82113	-464.34720	1060.90906	252.70201	-807.70685	590.37512	143.07076	-488.72049	534.82440	57.98307	-552.57129	247.87662	421.00070	-532.26343	59.78471	228.30583	
316	3.150	-428.74246	1640.51074	-17.63475				-656.48358	1668.29211	-8.51657				-675.73413	1538.93140	209.43741	-393.24170	1534.36011	126.17939	-579.74725	1466.45837	63.42990	-523.77795	1584.67078	193.10182	-805.83630	1198.97302	327.44241	-122.86949	1210.21021	-213.02789	-889.69165	922.43207	211.39063	-154.86757	1274.67566	77.93373	-697.35797	1051.93152	188.56345	-434.88464	1020.15033	-19.25310	-470.69714	1060.48901	246.57730	-815.03638	594.04742	126.20470	-489.03952	534.11304	55.27036	-572.83081	241.07719	405.00085	-532.41919	59.57127	228.80028	
317	3.160	-431.17740	1639.84729	-23.25906				-659.09692	1667.87964	-15.25264				-680.23767	1538.83411	201.37209	-397.17465	1534.30261	119.33241	-582.81213	1466.20117	55.76100	-527.54926	1584.10059	186.71896	-811.30823	1199.45459	319.47412	-124.31800	1210.89258	-217.04985	-895.29828	922.95465	203.73898	-158.22171	1274.93066	73.17178	-701.57300	1051.78735	178.85001	-435.83102	1019.51111	-24.79461	-475.92355	1061.05530	240.98224	-819.18689	595.37415	111.10700	-489.35190	533.84387	54.01157	-593.11255	233.29895	387.97617	-532.63495	59.59450	228.31929	
318	3.170	-434.24835	1639.33008	-28.20061				-662.12335	1668.57739	-23.30067				-684.84882	1538.93054	193.52225	-400.79364	1533.89465	112.27962	-585.66986	1465.61536	49.13755				-816.34674	1199.83691	311.25845	-126.21267	1211.05029	-221.50519	-900.31860	922.66376	196.83678	-161.47813	1274.75854	69.32743	-705.67523	1051.68384	168.98787	-436.64859	1018.83740	-29.76643	-481.92764	1061.23425	235.66985	-823.00806	596.96027	96.02943	-489.15778	533.08966	52.30655	-612.38171	223.03165	371.96826	-532.57227	59.78602	228.20985	
319	3.180	-436.72629	1638.78040	-34.87257				-664.57825	1668.37695	-31.30223				-689.19232	1539.06360	185.14818	-403.77222	1535.88586	102.53905	-589.15216	1465.96912	41.55283				-821.88147	1200.18750	303.12457	-128.02626	1211.53137	-226.32376	-905.28265	922.83112	188.96332	-164.43248	1274.41821	64.63568	-708.94025	1051.02161	159.37233	-437.74634	1018.11298	-34.61644	-487.52097	1060.57129	229.26001	-826.32904	597.74963	81.58067	-490.00580	532.95526	49.88681	-630.28149	212.26039	354.63696	-532.96942	59.83453	228.50983	
320	3.190	-522.68445	1544.60046	-130.49170				-667.08051	1668.32153	-39.27328				-693.21857	1538.43127	176.63898	-407.69019	1535.88806	95.53248	-592.33484	1465.29285	33.39482	-540.12933	1582.90576	164.50305	-827.25854	1200.09070	294.88605	-129.71692	1211.78784	-230.26654	-910.70197	922.97266	180.11406	-168.04794	1273.65894	60.18497	-713.69733	1050.75647	149.72079	-439.08548	1017.09863	-38.67185	-492.32660	1061.20227	223.77956	-828.67798	598.46698	66.44310	-490.57022	532.42792	48.03941	-649.69995	201.36398	335.86859	-532.66028	59.90121	228.17456	
321	3.200	-441.90201	1638.19287	-49.80803				-669.67920	1667.91772	-47.07031				-697.52588	1537.31189	169.10419	-410.96796	1535.37634	88.90416	-595.20667	1464.65356	27.35641				-832.33942	1199.60974	286.20483	-131.13831	1212.16736	-234.56207	-915.30859	921.67749	172.93756	-171.26817	1273.48743	55.20462	-721.36273	1053.89636	136.46231	-439.98798	1016.64130	-44.19702	-497.91333	1060.40796	217.65225	-830.57849	598.87463	52.98441	-492.05249	531.50690	44.31898	-668.76471	189.33650	315.79639	-532.89172	59.88903	227.93243	
322	3.210	-526.96295	1543.59436	-144.26003				-672.20361	1667.99121	-55.29752				-702.21271	1537.08582	160.39398	-414.76276	1534.93640	83.56238	-598.57483	1464.84534	18.15117	-548.58295	1582.75781	149.28712	-837.73822	1199.46533	277.48560	-132.93890	1212.55261	-239.00992	-920.28711	921.66479	164.89104	-174.41812	1273.02979	50.78156	-725.16022	1054.01868	126.64497	-440.95401	1015.50531	-49.92253	-503.58600	1060.42480	210.73343	-833.06903	599.50897	39.64854	-492.27173	531.18884	42.29078	-687.94012	178.55647	295.29187	-533.31848	60.15427	227.85675	
